<svg xmlns="http://www.w3.org/2000/svg" xmlns:xlink="http://www.w3.org/1999/xlink" viewBox="0 0 239.91 257.3"><defs><style>.cls-1{fill:#1d1d1b;}.cls-2{fill:url(#linear-gradient);}.cls-3{fill:url(#linear-gradient-2);}.cls-4{fill:url(#linear-gradient-3);}.cls-5{fill:url(#linear-gradient-4);}.cls-6{fill:url(#linear-gradient-5);}.cls-7{fill:url(#linear-gradient-6);}.cls-8{fill:url(#linear-gradient-7);}.cls-9{fill:url(#linear-gradient-8);}.cls-10{fill:url(#linear-gradient-9);}</style><linearGradient id="linear-gradient" x1="246.83" y1="188.9" x2="100.35" y2="10.72" gradientUnits="userSpaceOnUse"><stop offset="0" stop-color="#eebd47"/><stop offset="0.12" stop-color="#f8da76"/><stop offset="0.21" stop-color="#ffed95"/><stop offset="0.45" stop-color="#a1621e"/><stop offset="0.67" stop-color="#eea54b"/><stop offset="1" stop-color="#eebd47"/></linearGradient><linearGradient id="linear-gradient-2" x1="255.48" y1="181.8" x2="108.99" y2="3.61" xlink:href="#linear-gradient"/><linearGradient id="linear-gradient-3" x1="208.2" y1="220.67" x2="61.71" y2="42.48" xlink:href="#linear-gradient"/><linearGradient id="linear-gradient-4" x1="183.59" y1="240.84" x2="37.11" y2="62.66" xlink:href="#linear-gradient"/><linearGradient id="linear-gradient-5" x1="191.65" y1="234.23" x2="45.16" y2="56.04" xlink:href="#linear-gradient"/><linearGradient id="linear-gradient-6" x1="199.71" y1="227.62" x2="53.22" y2="49.43" xlink:href="#linear-gradient"/><linearGradient id="linear-gradient-7" x1="207.76" y1="221.01" x2="61.28" y2="42.82" xlink:href="#linear-gradient"/><linearGradient id="linear-gradient-8" x1="215.82" y1="214.4" x2="69.34" y2="36.21" xlink:href="#linear-gradient"/><linearGradient id="linear-gradient-9" x1="81.18" y1="138.89" x2="20.19" y2="64.71" xlink:href="#linear-gradient"/></defs><g id="Слой_2" data-name="Слой 2"><g id="Слой_1-2" data-name="Слой 1"><path class="cls-1" d="M8.83,218.51c3.05,0,5.26.74,6.63,2.2s2.05,3.67,2.05,6.62v1.37a11.49,11.49,0,0,1-.91,4.88,5.81,5.81,0,0,1-2.87,2.85,5.92,5.92,0,0,1,3.38,3,12.31,12.31,0,0,1,1,5.18v3.12q0,4.44-2.23,6.76c-1.49,1.56-3.71,2.33-6.65,2.33H0V218.51Zm-3,5.48v10.14H8.14a3.59,3.59,0,0,0,2.58-.88,4.28,4.28,0,0,0,.93-3.18v-2.13a5,5,0,0,0-.72-3A2.66,2.66,0,0,0,8.67,224Zm0,15.62v11.78H9.21a3,3,0,0,0,2.26-.83,4.34,4.34,0,0,0,.77-2.95v-3.35c0-1.79-.29-3-.88-3.67a3.74,3.74,0,0,0-2.9-1Z"/><path class="cls-1" d="M21.6,218.51h5.86v32.88h9.63v5.47H21.6Z"/><path class="cls-1" d="M58.69,256.86H52.78l-1-7H44.59l-1,7H38.2l6-38.35h8.57ZM45.33,244.7H51l-2.82-19.39Z"/><path class="cls-1" d="M78.38,242.57v5.09c0,3.1-.74,5.49-2.21,7.15s-3.65,2.49-6.52,2.49-5.05-.83-6.52-2.49-2.21-4.05-2.21-7.15V227.72q0-4.66,2.21-7.15c1.47-1.66,3.65-2.49,6.52-2.49s5,.83,6.52,2.49,2.21,4,2.21,7.15v3.72H72.84v-4.11A4.17,4.17,0,0,0,72,224.4a3.3,3.3,0,0,0-4.42,0,4.17,4.17,0,0,0-.82,2.93V248A4.07,4.07,0,0,0,67.6,251,3.39,3.39,0,0,0,72,251a4.07,4.07,0,0,0,.82-2.91v-5.47Z"/><path class="cls-1" d="M89.6,241.58l-1.81,3.51v11.77H81.94V218.51h5.85v16.71l7.77-16.71h5.75l-8.14,17.1,8.14,21.25h-6Z"/><path class="cls-1" d="M110.62,218.51h18.09V224h-6.12v32.87h-5.85V224h-6.12Z"/><path class="cls-1" d="M130.89,227.72q0-4.66,2.29-7.15a10,10,0,0,1,13.19,0q2.3,2.49,2.29,7.15v19.94c0,3.1-.76,5.49-2.29,7.15a10,10,0,0,1-13.19,0c-1.53-1.66-2.29-4.05-2.29-7.15ZM136.74,248a4.14,4.14,0,0,0,.83,2.93,3.29,3.29,0,0,0,4.41,0,4.14,4.14,0,0,0,.83-2.93V227.33a4.17,4.17,0,0,0-.83-2.93,3.29,3.29,0,0,0-4.41,0,4.17,4.17,0,0,0-.83,2.93Z"/><path class="cls-1" d="M165.42,236.43l-2.13,20.43h-8l-4.15-38.35h5.69l3.14,30.25,2.82-30.25h5.64L171.33,249l3-30.46h5.11l-4.15,38.35h-7.77Z"/><path class="cls-1" d="M188.25,234.68h8v5.47h-8v11.24h10.11v5.47h-16V218.51h16V224H188.25Z"/><path class="cls-1" d="M214.21,256.86c-.07-.25-.14-.49-.21-.71a5.41,5.41,0,0,1-.18-.82,9.51,9.51,0,0,1-.11-1.26q0-.76,0-1.92v-6a6.05,6.05,0,0,0-.9-3.78,3.6,3.6,0,0,0-2.93-1.1h-2v15.61H202V218.51h8.83c3.05,0,5.26.74,6.62,2.2s2,3.67,2,6.62v3c0,3.94-1.27,6.54-3.83,7.78a5.3,5.3,0,0,1,3.06,3,14,14,0,0,1,.83,5.12v5.92c0,.95,0,1.78.1,2.49a8.31,8.31,0,0,0,.53,2.16ZM207.83,224v11.78h2.29a3.63,3.63,0,0,0,2.58-.87,4.31,4.31,0,0,0,.93-3.18v-3.78a5,5,0,0,0-.72-3,2.67,2.67,0,0,0-2.26-.93Z"/><path class="cls-1" d="M222.62,227.72q0-4.66,2.16-7.15c1.43-1.66,3.59-2.49,6.46-2.49s5,.83,6.47,2.49,2.15,4,2.15,7.15v1.48h-5.53v-1.87a4.4,4.4,0,0,0-.77-2.93,2.81,2.81,0,0,0-2.16-.85,2.77,2.77,0,0,0-2.15.85,4.34,4.34,0,0,0-.78,2.93,6.91,6.91,0,0,0,.86,3.48,13.87,13.87,0,0,0,2.12,2.85c.86.9,1.77,1.79,2.74,2.69a25.45,25.45,0,0,1,2.74,2.93,14.51,14.51,0,0,1,2.13,3.61,12.24,12.24,0,0,1,.85,4.77c0,3.1-.73,5.49-2.2,7.15s-3.65,2.49-6.52,2.49-5.05-.83-6.52-2.49-2.21-4.05-2.21-7.15V245H228v3a4.07,4.07,0,0,0,.82,2.91,3.39,3.39,0,0,0,4.42,0,4.07,4.07,0,0,0,.82-2.91,7,7,0,0,0-.85-3.48,14.54,14.54,0,0,0-2.13-2.84c-.85-.9-1.76-1.79-2.74-2.69a26.36,26.36,0,0,1-2.74-2.93,15,15,0,0,1-2.13-3.62A12.15,12.15,0,0,1,222.62,227.72Z"/><path class="cls-2" d="M149.32,0q15.3,0,22.16,7.12t6.85,21.53V33.1q0,9.61-3,15.84a19.17,19.17,0,0,1-9.61,9.25q8,3,11.3,9.88t3.3,16.82V95q0,14.41-7.48,22t-22.24,7.56H119.78V0Zm-10,17.8V50.72H147q5.51,0,8.63-2.85t3.11-10.32V30.61q0-6.76-2.4-9.79t-7.56-3Zm0,50.71v38.27h11.21q5,0,7.56-2.67t2.58-9.61V83.64q0-8.72-2.93-11.92t-9.7-3.21Z"/><path class="cls-3" d="M179.41,76.22h60.5V94H219.45V200.8H199.87V94H179.41Z"/><polygon class="cls-1" points="98.9 7.63 98.9 200.59 6.12 200.59 6.12 111.25 98.9 7.63"/><rect class="cls-4" x="106.22" y="0.24" width="6.23" height="200.36"/><rect class="cls-5" x="119.72" y="133.27" width="6.23" height="67.33"/><rect class="cls-6" x="133.21" y="133.27" width="6.23" height="67.33"/><rect class="cls-7" x="146.7" y="133.27" width="6.23" height="67.33"/><rect class="cls-8" x="160.19" y="133.27" width="6.23" height="67.33"/><rect class="cls-9" x="173.69" y="133.27" width="6.23" height="67.33"/><polygon class="cls-10" points="98.9 0 98.9 7.63 6.12 111.25 6.12 200.59 0 200.59 0 108.98 6.12 102.43 98.9 0"/></g></g></svg>