<svg xmlns="http://www.w3.org/2000/svg" viewBox="0 0 396.89 396.93"><g id="Слой_2" data-name="Слой 2"><g id="Слой_1-2" data-name="Слой 1"><path d="M100.75,0H296.06c8.31,1.72,16.88,2.64,24.88,5.28,46.1,15.21,75.63,55.65,75.82,104,.23,59.4.08,118.8,0,178.2,0,18.81-4.13,36.76-13.63,53-21.6,36.89-54.06,56-96.83,56.24-58.63.38-117.26.17-175.88,0a103.09,103.09,0,0,1-21.93-2c-44.45-9.9-73-37-85.25-80.82C1.65,308.1,1.07,302,0,296.06V100.75c.65-4,1.08-8.16,2-12.15C12.05,44.1,39,15.56,83,3.27,88.75,1.65,94.82,1.06,100.75,0ZM307.17,198.49c.16-59.77-48.2-108.3-108.48-108.84-59.63-.54-108.87,48.54-109,108.67-.17,59.77,48.2,108.31,108.48,108.85C257.75,307.7,307,258.62,307.17,198.49Zm6.54-148.4c-18.07.06-33.11,15.09-33,33s15.2,33.06,33.11,33a33,33,0,0,0-.08-66Z"/><path d="M198.6,113.09c47.2.16,85.46,38.68,85.13,85.71a85.38,85.38,0,0,1-85.51,84.93C151,283.57,112.76,245,113.09,198S151.66,112.92,198.6,113.09Z"/><path d="M313.61,73.54A9.54,9.54,0,0,1,323.27,83a9.71,9.71,0,0,1-9.56,9.64,9.93,9.93,0,0,1-9.54-9.35A9.73,9.73,0,0,1,313.61,73.54Z"/></g></g></svg>