<svg xmlns="http://www.w3.org/2000/svg" viewBox="0 0 396.89 279.16"><g id="Слой_2" data-name="Слой 2"><g id="Слой_1-2" data-name="Слой 1"><path d="M0,30.28l3.2-9.86L123.08,139.26,3.1,258.11c-.81-2.41-1.95-5.82-3.1-9.23Z"/><path d="M20.07,2.84c4.74-1,8.7-1.95,12.71-2.68A25.6,25.6,0,0,1,37.42.05q161,0,322,0c5.74,0,11.27.67,16.92,3.3-1.08,1.18-1.89,2.13-2.77,3q-82.18,82.49-164.4,164.94c-6.81,6.83-14.59,6.84-21.37,0L23.36,6.36C22.48,5.47,21.65,4.52,20.07,2.84Z"/><path d="M20.54,275.72C60.6,236,100.39,196.62,140.44,157c.35.33,1.39,1.23,2.35,2.2Q157,173.43,171.23,187.7c16.05,16.07,38.31,16.05,54.41,0,10.42-10.39,20.87-20.75,30.84-30.66L376.77,276.28c-4.67,1-8.6,2-12.56,2.71a25.59,25.59,0,0,1-4.64.12q-161.15,0-322.29,0C31.58,279.13,26.05,278.56,20.54,275.72Z"/><path d="M394.35,259.37,273.75,139.82l120.18-119c.81,3.3,1.9,7.38,2.78,11.51a23.11,23.11,0,0,1,.12,4.64q0,102.65-.1,205.31C396.71,247.83,395.23,253.37,394.35,259.37Z"/></g></g></svg>