<svg xmlns="http://www.w3.org/2000/svg" viewBox="0 0 377.12 503.26"><g id="Слой_2" data-name="Слой 2"><g id="Слой_1-2" data-name="Слой 1"><path d="M201.38,0c10,1.64,20,2.82,29.9,5,72.86,16.18,130.66,77.8,143.24,151.45,6.7,39.26-.1,76.51-14.38,112.9-16.44,41.87-39.86,79.82-66.21,116.05a932.78,932.78,0,0,1-97.33,113c-6.47,6.43-9.54,6.44-16,0C131,448.8,86.18,395.34,49.9,335.1c-20.17-33.48-36.83-68.51-45.5-107C-13.28,149.77,23.56,65.9,93.26,26,117.91,11.83,144.19,3.12,172.54.8a22.39,22.39,0,0,0,3.28-.8Zm73.69,188.73c-.14-47.7-38.79-86.56-86-86.51a86.51,86.51,0,0,0-86.89,87.15c.12,47.45,39.36,86,87.28,85.78C236.5,274.93,275.22,235.87,275.07,188.73Z"/></g></g></svg>