<svg xmlns="http://www.w3.org/2000/svg" viewBox="0 0 368.78 368.59"><g id="Слой_2" data-name="Слой 2"><g id="Слой_1-2" data-name="Слой 1"><path d="M0,100.78c.57-2.67,1-5.36,1.74-8A42.62,42.62,0,0,1,13,73c9.52-9.48,19-19,28.63-28.37C53.8,32.82,68,32.57,80.21,44.4Q102.82,66.32,124.72,89c11.91,12.31,11.74,26.18-.17,38.59-8.39,8.74-17.12,17.15-25.71,25.69-4.58,4.55-4.71,5.21-2.18,11,8.28,18.79,20.86,34.63,34.4,49.79,17.83,20,37.57,37.71,60.8,51.27,4.44,2.59,9.2,4.63,13.7,7.14,3.26,1.81,5.8,1.27,8.35-1.32q13.25-13.47,26.65-26.79c6.31-6.28,13.63-10.12,22.89-9a24.8,24.8,0,0,1,14.62,7.11c15.78,15.6,31.65,31.13,47,47.11,10.22,10.63,10.37,24.48.43,35.34-10.11,11.05-20.63,21.78-31.58,32-11.28,10.52-25.4,12.63-40.28,11.44-22.85-1.82-43.95-9.44-64.28-19.43C120.28,314.9,67.25,263.81,29,197.22c-11.9-20.75-21.22-42.67-26.48-66.14C1.49,126.31.84,121.44,0,116.62Z"/><path d="M196.53,0c6.87.93,13.79,1.59,20.6,2.82,44.6,8.06,81.32,29.79,110.08,64.68,23.25,28.19,36.56,60.74,40.43,97.09.63,5.93.76,11.92,1.14,18.2h-35c-.77-40.57-15-75.69-43.66-104.38s-63.8-42.87-104.39-43.63V0Z"/><path d="M185.73,65.77c64.42-1.38,118.79,55,117,117.11H268.39c-.6-22.59-8.33-42.21-24.31-58.22s-35.56-23.88-58.35-24.45Z"/></g></g></svg>